<?xml version="1.0" encoding="utf-8"?>
<!-- Generator: Adobe Illustrator 19.2.1, SVG Export Plug-In . SVG Version: 6.00 Build 0)  -->
<svg version="1.1" id="layer" xmlns="http://www.w3.org/2000/svg" xmlns:xlink="http://www.w3.org/1999/xlink" x="0px" y="0px"
	 viewBox="0 0 652 652" style="enable-background:new 0 0 652 652;" xml:space="preserve">
<style type="text/css">
	.st0{fill:none;stroke:#000000;stroke-width:2.5316;stroke-miterlimit:10;}
</style>
<g id="Artwork">
	<polygon class="st0" points="140.4,283.7 117.6,283.7 110.1,291.3 110,367.3 170.8,367.3 178.4,359.7 178.4,344.5 140.4,344.5 	"/>
	<polygon class="st0" points="224,283.7 201.2,283.7 193.6,291.3 193.6,367.3 254.3,367.3 261.9,359.7 261.9,344.5 224,344.5 	"/>
	<polygon class="st0" points="307.5,359.7 299.9,367.3 277.1,367.3 277.2,291.3 284.7,283.7 307.5,283.7 	"/>
	<polygon class="st0" points="391.1,336.9 353.1,336.9 353.1,359.7 345.5,367.3 322.7,367.3 322.7,291.3 330.3,283.7 398.7,283.7 
		398.7,329.3 	"/>
	<polygon class="st0" points="413.8,306.5 413.8,291.3 421.4,283.7 497.4,283.7 497.4,298.9 489.8,306.5 467,306.5 467,359.7 
		459.4,367.3 436.6,367.3 436.6,306.5 	"/>
	<polyline class="st0" points="588.5,306.5 618.9,306.5 626.5,298.9 626.5,283.7 565.7,283.7 558.2,291.3 558.2,367.3 618.9,367.3 
		626.5,359.7 626.5,344.5 588.5,344.5 588.5,336.9 588.5,314.1 588.5,306.5 	"/>
	<polyline class="st0" points="56.9,306.5 56.9,314.1 87.3,314.1 87.3,329.3 79.7,336.9 56.9,336.9 56.9,344.5 94.9,344.5 
		94.9,359.7 87.3,367.3 26.5,367.3 26.5,291.3 34.1,283.7 94.9,283.7 94.9,298.9 87.3,306.5 56.9,306.5 	"/>
	<path d="M26.5,291.3h60.8v16.2h-38v14.2h30.4V338H49.3v14.1h38v15.2H26.5V291.3z"/>
	<polygon class="st0" points="543,359.7 535.4,367.3 512.6,367.3 512.6,291.3 520.2,283.7 542.9,283.7 	"/>
	<polyline class="st0" points="353.1,306.5 353.1,314.1 375.9,314.1 	"/>
	<path d="M110,291.3h22.8v60.8h38v15.2H110V291.3z"/>
	<path d="M193.6,291.3h22.8v60.8h38v15.2h-60.8V291.3z"/>
	<path d="M277.1,291.3h22.8v60.8l0,0v15.2h-22.8V291.3z"/>
	<path d="M512.6,291.3h22.8v60.8l0,0v15.2h-22.8V291.3z"/>
	<path d="M391.1,291.3h-68.4v75.9h22.8v-29.4h45.6V291.3z M375.9,321.7h-30.4v-15.2h30.4V321.7z"/>
	<polygon points="429,291.3 413.8,291.3 413.8,306.5 436.6,306.5 436.6,367.3 459.4,367.3 459.4,307.8 489.8,307.8 489.8,291.3 	"/>
	<polygon points="618.9,291.3 558.2,291.3 558.2,367.3 618.9,367.3 618.9,352.1 580.9,352.1 580.9,307.6 618.9,307.6 	"/>
</g>
</svg>
